<mxfile host="app.diagrams.net" modified="2023-03-28T22:11:25.520Z" agent="Mozilla/5.0 (Windows NT 10.0; Win64; x64) AppleWebKit/537.36 (KHTML, like Gecko) Chrome/111.0.0.0 Safari/537.36" etag="Qr0lH0Tg4QbqJQ2Z7g5I" version="21.1.1" type="device">
  <diagram name="Page-1" id="9f46799a-70d6-7492-0946-bef42562c5a5">
    <mxGraphModel dx="1434" dy="1683" grid="1" gridSize="10" guides="1" tooltips="1" connect="1" arrows="1" fold="1" page="1" pageScale="1" pageWidth="1100" pageHeight="850" background="#000000" math="0" shadow="0">
      <root>
        <mxCell id="0" />
        <mxCell id="1" parent="0" />
        <mxCell id="78961159f06e98e8-17" value="catalog" style="swimlane;html=1;fontStyle=1;align=center;verticalAlign=top;childLayout=stackLayout;horizontal=1;startSize=26;horizontalStack=0;resizeParent=1;resizeLast=0;collapsible=1;marginBottom=0;swimlaneFillColor=#ffffff;rounded=0;shadow=0;comic=0;labelBackgroundColor=default;strokeWidth=1;fillColor=none;fontFamily=Verdana;fontSize=12;labelBorderColor=none;" parent="1" vertex="1">
          <mxGeometry x="400" y="-430" width="260" height="410" as="geometry" />
        </mxCell>
        <mxCell id="78961159f06e98e8-21" value="&lt;span style=&quot;background-color: rgb(255, 255, 255);&quot;&gt;&lt;img style=&quot;color: rgb(226, 232, 240); font-family: &amp;quot;Segoe UI&amp;quot;, &amp;quot;Segoe Pro&amp;quot;, sans-serif; font-size: 13.12px; box-sizing: border-box; vertical-align: middle; width: 22px; height: 22px;&quot; alt=&quot;*&quot; src=&quot;http://localhost/phpmyadmin/themes/pmahomme/img/designer/FieldKey_small.png&quot;&gt;Catalog_ID : int(11)&lt;/span&gt;" style="text;html=1;align=left;verticalAlign=top;spacingLeft=4;spacingRight=4;whiteSpace=wrap;overflow=hidden;rotatable=0;points=[[0,0.5],[1,0.5]];portConstraint=eastwest;fontColor=#000000;" parent="78961159f06e98e8-17" vertex="1">
          <mxGeometry y="26" width="260" height="26" as="geometry" />
        </mxCell>
        <mxCell id="78961159f06e98e8-23" value="&lt;span style=&quot;background-color: rgb(255, 255, 255);&quot;&gt;&lt;img style=&quot;color: rgb(226, 232, 240); font-family: &amp;quot;Segoe UI&amp;quot;, &amp;quot;Segoe Pro&amp;quot;, sans-serif; font-size: 13.12px; box-sizing: border-box; vertical-align: middle; width: 22px; height: 22px;&quot; alt=&quot;*&quot; src=&quot;http://localhost/phpmyadmin/themes/pmahomme/img/designer/FieldKey_small.png&quot;&gt;&lt;/span&gt;&amp;nbsp;Catalog_UID : varchar(15)" style="text;html=1;strokeColor=none;fillColor=none;align=left;verticalAlign=top;spacingLeft=4;spacingRight=4;whiteSpace=wrap;overflow=hidden;rotatable=0;points=[[0,0.5],[1,0.5]];portConstraint=eastwest;fontColor=#000000;" parent="78961159f06e98e8-17" vertex="1">
          <mxGeometry y="52" width="260" height="26" as="geometry" />
        </mxCell>
        <mxCell id="GG2ZH2h3QIb9JEpN6DkU-12" value="" style="line;html=1;strokeWidth=1;fillColor=none;align=left;verticalAlign=middle;spacingTop=-1;spacingLeft=3;spacingRight=3;rotatable=0;labelPosition=right;points=[];portConstraint=eastwest;" parent="78961159f06e98e8-17" vertex="1">
          <mxGeometry y="78" width="260" height="8" as="geometry" />
        </mxCell>
        <mxCell id="78961159f06e98e8-26" value="&lt;span style=&quot;background-color: rgb(255, 255, 255);&quot;&gt;&lt;img style=&quot;font-family: &amp;quot;Segoe UI&amp;quot;, &amp;quot;Segoe Pro&amp;quot;, sans-serif; font-size: 13.12px; box-sizing: border-box; vertical-align: middle; width: 22px; height: 22px;&quot; alt=&quot;*&quot; src=&quot;http://localhost/phpmyadmin/themes/pmahomme/img/designer/Field_small_char.png&quot;&gt;&lt;span style=&quot;font-family: &amp;quot;Segoe UI&amp;quot;, &amp;quot;Segoe Pro&amp;quot;, sans-serif; font-size: 13.12px;&quot;&gt;Administrator_UID : varchar(15)&lt;/span&gt;&lt;/span&gt;" style="text;html=1;strokeColor=none;fillColor=none;align=left;verticalAlign=top;spacingLeft=4;spacingRight=4;whiteSpace=wrap;overflow=hidden;rotatable=0;points=[[0,0.5],[1,0.5]];portConstraint=eastwest;fontColor=#000000;" parent="78961159f06e98e8-17" vertex="1">
          <mxGeometry y="86" width="260" height="26" as="geometry" />
        </mxCell>
        <mxCell id="78961159f06e98e8-24" value="&lt;img style=&quot;font-family: &amp;quot;Segoe UI&amp;quot;, &amp;quot;Segoe Pro&amp;quot;, sans-serif; font-size: 13.12px; box-sizing: border-box; vertical-align: middle; width: 22px; height: 22px;&quot; alt=&quot;*&quot; src=&quot;http://localhost/phpmyadmin/themes/pmahomme/img/designer/Field_small_char.png&quot;&gt;&amp;nbsp;Name : text" style="text;html=1;strokeColor=none;fillColor=none;align=left;verticalAlign=top;spacingLeft=4;spacingRight=4;whiteSpace=wrap;overflow=hidden;rotatable=0;points=[[0,0.5],[1,0.5]];portConstraint=eastwest;fontColor=#000000;" parent="78961159f06e98e8-17" vertex="1">
          <mxGeometry y="112" width="260" height="26" as="geometry" />
        </mxCell>
        <mxCell id="78961159f06e98e8-20" value="&lt;img style=&quot;font-family: &amp;quot;Segoe UI&amp;quot;, &amp;quot;Segoe Pro&amp;quot;, sans-serif; font-size: 13.12px; box-sizing: border-box; vertical-align: middle; width: 22px; height: 22px;&quot; alt=&quot;*&quot; src=&quot;http://localhost/phpmyadmin/themes/pmahomme/img/designer/Field_small_char.png&quot;&gt;&amp;nbsp;Author : text" style="text;html=1;strokeColor=none;fillColor=none;align=left;verticalAlign=top;spacingLeft=4;spacingRight=4;whiteSpace=wrap;overflow=hidden;rotatable=0;points=[[0,0.5],[1,0.5]];portConstraint=eastwest;fontColor=#000000;" parent="78961159f06e98e8-17" vertex="1">
          <mxGeometry y="138" width="260" height="26" as="geometry" />
        </mxCell>
        <mxCell id="78961159f06e98e8-27" value="&lt;img style=&quot;font-family: &amp;quot;Segoe UI&amp;quot;, &amp;quot;Segoe Pro&amp;quot;, sans-serif; font-size: 13.12px; box-sizing: border-box; vertical-align: middle; width: 22px; height: 22px;&quot; alt=&quot;*&quot; src=&quot;http://localhost/phpmyadmin/themes/pmahomme/img/designer/Field_small_char.png&quot;&gt;&amp;nbsp;Page : text" style="text;html=1;strokeColor=none;fillColor=none;align=left;verticalAlign=top;spacingLeft=4;spacingRight=4;whiteSpace=wrap;overflow=hidden;rotatable=0;points=[[0,0.5],[1,0.5]];portConstraint=eastwest;fontColor=#000000;" parent="78961159f06e98e8-17" vertex="1">
          <mxGeometry y="164" width="260" height="26" as="geometry" />
        </mxCell>
        <mxCell id="GG2ZH2h3QIb9JEpN6DkU-3" value="&lt;img style=&quot;font-family: &amp;quot;Segoe UI&amp;quot;, &amp;quot;Segoe Pro&amp;quot;, sans-serif; font-size: 13.12px; box-sizing: border-box; vertical-align: middle; width: 22px; height: 22px;&quot; alt=&quot;*&quot; src=&quot;http://localhost/phpmyadmin/themes/pmahomme/img/designer/Field_small_char.png&quot;&gt;&amp;nbsp;Printing : text" style="text;html=1;strokeColor=none;fillColor=none;align=left;verticalAlign=top;spacingLeft=4;spacingRight=4;whiteSpace=wrap;overflow=hidden;rotatable=0;points=[[0,0.5],[1,0.5]];portConstraint=eastwest;fontColor=#000000;" parent="78961159f06e98e8-17" vertex="1">
          <mxGeometry y="190" width="260" height="26" as="geometry" />
        </mxCell>
        <mxCell id="GG2ZH2h3QIb9JEpN6DkU-4" value="&lt;img style=&quot;font-family: &amp;quot;Segoe UI&amp;quot;, &amp;quot;Segoe Pro&amp;quot;, sans-serif; font-size: 13.12px; box-sizing: border-box; vertical-align: middle; width: 22px; height: 22px;&quot; alt=&quot;*&quot; src=&quot;http://localhost/phpmyadmin/themes/pmahomme/img/designer/Field_small_char.png&quot;&gt;&amp;nbsp;Publication_No : text" style="text;html=1;strokeColor=none;fillColor=none;align=left;verticalAlign=top;spacingLeft=4;spacingRight=4;whiteSpace=wrap;overflow=hidden;rotatable=0;points=[[0,0.5],[1,0.5]];portConstraint=eastwest;fontColor=#000000;" parent="78961159f06e98e8-17" vertex="1">
          <mxGeometry y="216" width="260" height="26" as="geometry" />
        </mxCell>
        <mxCell id="GG2ZH2h3QIb9JEpN6DkU-5" value="&lt;img style=&quot;font-family: &amp;quot;Segoe UI&amp;quot;, &amp;quot;Segoe Pro&amp;quot;, sans-serif; font-size: 13.12px; box-sizing: border-box; vertical-align: middle; width: 22px; height: 22px;&quot; alt=&quot;*&quot; src=&quot;http://localhost/phpmyadmin/themes/pmahomme/img/designer/Field_small_char.png&quot;&gt;&amp;nbsp;Print_and_Skin : text" style="text;html=1;strokeColor=none;fillColor=none;align=left;verticalAlign=top;spacingLeft=4;spacingRight=4;whiteSpace=wrap;overflow=hidden;rotatable=0;points=[[0,0.5],[1,0.5]];portConstraint=eastwest;fontColor=#000000;" parent="78961159f06e98e8-17" vertex="1">
          <mxGeometry y="242" width="260" height="26" as="geometry" />
        </mxCell>
        <mxCell id="GG2ZH2h3QIb9JEpN6DkU-6" value="&lt;img style=&quot;font-family: &amp;quot;Segoe UI&amp;quot;, &amp;quot;Segoe Pro&amp;quot;, sans-serif; font-size: 13.12px; box-sizing: border-box; vertical-align: middle; width: 22px; height: 22px;&quot; alt=&quot;*&quot; src=&quot;http://localhost/phpmyadmin/themes/pmahomme/img/designer/Field_small_char.png&quot;&gt;&amp;nbsp;Language : text" style="text;html=1;strokeColor=none;fillColor=none;align=left;verticalAlign=top;spacingLeft=4;spacingRight=4;whiteSpace=wrap;overflow=hidden;rotatable=0;points=[[0,0.5],[1,0.5]];portConstraint=eastwest;fontColor=#000000;" parent="78961159f06e98e8-17" vertex="1">
          <mxGeometry y="268" width="260" height="26" as="geometry" />
        </mxCell>
        <mxCell id="GG2ZH2h3QIb9JEpN6DkU-7" value="&lt;img style=&quot;font-family: &amp;quot;Segoe UI&amp;quot;, &amp;quot;Segoe Pro&amp;quot;, sans-serif; font-size: 13.12px; box-sizing: border-box; vertical-align: middle; width: 22px; height: 22px;&quot; alt=&quot;*&quot; src=&quot;http://localhost/phpmyadmin/themes/pmahomme/img/designer/Field_small_char.png&quot;&gt;&amp;nbsp;Publication_Year : text" style="text;html=1;strokeColor=none;fillColor=none;align=left;verticalAlign=top;spacingLeft=4;spacingRight=4;whiteSpace=wrap;overflow=hidden;rotatable=0;points=[[0,0.5],[1,0.5]];portConstraint=eastwest;fontColor=#000000;" parent="78961159f06e98e8-17" vertex="1">
          <mxGeometry y="294" width="260" height="26" as="geometry" />
        </mxCell>
        <mxCell id="GG2ZH2h3QIb9JEpN6DkU-8" value="&lt;img style=&quot;font-family: &amp;quot;Segoe UI&amp;quot;, &amp;quot;Segoe Pro&amp;quot;, sans-serif; font-size: 13.12px; box-sizing: border-box; vertical-align: middle; width: 22px; height: 22px;&quot; alt=&quot;*&quot; src=&quot;http://localhost/phpmyadmin/themes/pmahomme/img/designer/Field_small_char.png&quot;&gt;&amp;nbsp;Total : text" style="text;html=1;strokeColor=none;fillColor=none;align=left;verticalAlign=top;spacingLeft=4;spacingRight=4;whiteSpace=wrap;overflow=hidden;rotatable=0;points=[[0,0.5],[1,0.5]];portConstraint=eastwest;fontColor=#000000;" parent="78961159f06e98e8-17" vertex="1">
          <mxGeometry y="320" width="260" height="26" as="geometry" />
        </mxCell>
        <mxCell id="78961159f06e98e8-19" value="" style="line;html=1;strokeWidth=1;fillColor=none;align=left;verticalAlign=middle;spacingTop=-1;spacingLeft=3;spacingRight=3;rotatable=0;labelPosition=right;points=[];portConstraint=eastwest;" parent="78961159f06e98e8-17" vertex="1">
          <mxGeometry y="346" width="260" height="8" as="geometry" />
        </mxCell>
        <mxCell id="GG2ZH2h3QIb9JEpN6DkU-9" value="&lt;img style=&quot;color: rgb(226, 232, 240); font-family: &amp;quot;Segoe UI&amp;quot;, &amp;quot;Segoe Pro&amp;quot;, sans-serif; box-sizing: border-box; vertical-align: middle; width: 22px; height: 22px;&quot; alt=&quot;*&quot; src=&quot;http://localhost/phpmyadmin/themes/pmahomme/img/designer/Field_small_date.png&quot;&gt;Created_At : timestamp" style="text;html=1;strokeColor=none;fillColor=none;align=left;verticalAlign=top;spacingLeft=4;spacingRight=4;whiteSpace=wrap;overflow=hidden;rotatable=0;points=[[0,0.5],[1,0.5]];portConstraint=eastwest;fontColor=#000000;" parent="78961159f06e98e8-17" vertex="1">
          <mxGeometry y="354" width="260" height="26" as="geometry" />
        </mxCell>
        <mxCell id="GG2ZH2h3QIb9JEpN6DkU-10" value="&lt;img style=&quot;color: rgb(226, 232, 240); font-family: &amp;quot;Segoe UI&amp;quot;, &amp;quot;Segoe Pro&amp;quot;, sans-serif; box-sizing: border-box; vertical-align: middle; width: 22px; height: 22px;&quot; alt=&quot;*&quot; src=&quot;http://localhost/phpmyadmin/themes/pmahomme/img/designer/Field_small_date.png&quot;&gt;Updated_At : timestamp" style="text;html=1;strokeColor=none;fillColor=none;align=left;verticalAlign=top;spacingLeft=4;spacingRight=4;whiteSpace=wrap;overflow=hidden;rotatable=0;points=[[0,0.5],[1,0.5]];portConstraint=eastwest;fontColor=#000000;" parent="78961159f06e98e8-17" vertex="1">
          <mxGeometry y="380" width="260" height="26" as="geometry" />
        </mxCell>
        <mxCell id="78961159f06e98e8-30" value="administrator" style="swimlane;html=1;fontStyle=1;align=center;verticalAlign=top;childLayout=stackLayout;horizontal=1;startSize=26;horizontalStack=0;resizeParent=1;resizeLast=0;collapsible=1;marginBottom=0;swimlaneFillColor=#ffffff;rounded=0;shadow=0;comic=0;labelBackgroundColor=none;strokeWidth=1;fillColor=none;fontFamily=Verdana;fontSize=12" parent="1" vertex="1">
          <mxGeometry y="-536" width="260" height="347" as="geometry">
            <mxRectangle x="390" y="83" width="130" height="30" as="alternateBounds" />
          </mxGeometry>
        </mxCell>
        <mxCell id="78961159f06e98e8-31" value="&lt;img style=&quot;color: rgb(226, 232, 240); font-family: &amp;quot;Segoe UI&amp;quot;, &amp;quot;Segoe Pro&amp;quot;, sans-serif; font-size: 13.12px; box-sizing: border-box; vertical-align: middle; width: 22px; height: 22px;&quot; alt=&quot;*&quot; src=&quot;http://localhost/phpmyadmin/themes/pmahomme/img/designer/FieldKey_small.png&quot;&gt;Administrator_Id : int(11)" style="text;html=1;strokeColor=none;fillColor=none;align=left;verticalAlign=top;spacingLeft=4;spacingRight=4;whiteSpace=wrap;overflow=hidden;rotatable=0;points=[[0,0.5],[1,0.5]];portConstraint=eastwest;fontColor=#000000;" parent="78961159f06e98e8-30" vertex="1">
          <mxGeometry y="26" width="260" height="26" as="geometry" />
        </mxCell>
        <mxCell id="78961159f06e98e8-32" value="&lt;img style=&quot;color: rgb(226, 232, 240); font-family: &amp;quot;Segoe UI&amp;quot;, &amp;quot;Segoe Pro&amp;quot;, sans-serif; font-size: 13.12px; box-sizing: border-box; vertical-align: middle; width: 22px; height: 22px;&quot; alt=&quot;*&quot; src=&quot;http://localhost/phpmyadmin/themes/pmahomme/img/designer/FieldKey_small.png&quot;&gt;Administrator_UID : varchar(15)" style="text;html=1;strokeColor=none;fillColor=none;align=left;verticalAlign=top;spacingLeft=4;spacingRight=4;whiteSpace=wrap;overflow=hidden;rotatable=0;points=[[0,0.5],[1,0.5]];portConstraint=eastwest;fontColor=#000000;" parent="78961159f06e98e8-30" vertex="1">
          <mxGeometry y="52" width="260" height="26" as="geometry" />
        </mxCell>
        <mxCell id="78961159f06e98e8-36" value="&lt;img style=&quot;color: rgb(226, 232, 240); font-family: &amp;quot;Segoe UI&amp;quot;, &amp;quot;Segoe Pro&amp;quot;, sans-serif; font-size: 13.12px; box-sizing: border-box; vertical-align: middle; width: 22px; height: 22px;&quot; alt=&quot;*&quot; src=&quot;http://localhost/phpmyadmin/themes/pmahomme/img/designer/FieldKey_small.png&quot;&gt;Username : text" style="text;html=1;strokeColor=none;fillColor=none;align=left;verticalAlign=top;spacingLeft=4;spacingRight=4;whiteSpace=wrap;overflow=hidden;rotatable=0;points=[[0,0.5],[1,0.5]];portConstraint=eastwest;fontColor=#000000;" parent="78961159f06e98e8-30" vertex="1">
          <mxGeometry y="78" width="260" height="26" as="geometry" />
        </mxCell>
        <mxCell id="78961159f06e98e8-40" value="&lt;img style=&quot;color: rgb(226, 232, 240); font-family: &amp;quot;Segoe UI&amp;quot;, &amp;quot;Segoe Pro&amp;quot;, sans-serif; font-size: 13.12px; box-sizing: border-box; vertical-align: middle; width: 22px; height: 22px;&quot; alt=&quot;*&quot; src=&quot;http://localhost/phpmyadmin/themes/pmahomme/img/designer/FieldKey_small.png&quot;&gt;Email : text" style="text;html=1;strokeColor=none;fillColor=none;align=left;verticalAlign=top;spacingLeft=4;spacingRight=4;whiteSpace=wrap;overflow=hidden;rotatable=0;points=[[0,0.5],[1,0.5]];portConstraint=eastwest;fontColor=#000000;" parent="78961159f06e98e8-30" vertex="1">
          <mxGeometry y="104" width="260" height="26" as="geometry" />
        </mxCell>
        <mxCell id="78961159f06e98e8-38" value="" style="line;html=1;strokeWidth=1;fillColor=none;align=left;verticalAlign=middle;spacingTop=-1;spacingLeft=3;spacingRight=3;rotatable=0;labelPosition=right;points=[];portConstraint=eastwest;" parent="78961159f06e98e8-30" vertex="1">
          <mxGeometry y="130" width="260" height="8" as="geometry" />
        </mxCell>
        <mxCell id="78961159f06e98e8-34" value="&lt;img style=&quot;font-family: &amp;quot;Segoe UI&amp;quot;, &amp;quot;Segoe Pro&amp;quot;, sans-serif; font-size: 13.12px; box-sizing: border-box; vertical-align: middle; width: 22px; height: 22px;&quot; alt=&quot;*&quot; src=&quot;http://localhost/phpmyadmin/themes/pmahomme/img/designer/Field_small_char.png&quot;&gt;&lt;span style=&quot;background-color: initial;&quot;&gt;Type&amp;nbsp;&lt;/span&gt;&lt;span style=&quot;background-color: initial;&quot;&gt;: enum(&#39;Administrator&#39;,&#39;Librarian&#39;)&lt;/span&gt;" style="text;html=1;strokeColor=none;fillColor=none;align=left;verticalAlign=top;spacingLeft=4;spacingRight=4;whiteSpace=wrap;overflow=hidden;rotatable=0;points=[[0,0.5],[1,0.5]];portConstraint=eastwest;fontColor=#000000;" parent="78961159f06e98e8-30" vertex="1">
          <mxGeometry y="138" width="260" height="26" as="geometry" />
        </mxCell>
        <mxCell id="78961159f06e98e8-37" value="&lt;img style=&quot;font-family: &amp;quot;Segoe UI&amp;quot;, &amp;quot;Segoe Pro&amp;quot;, sans-serif; font-size: 13.12px; box-sizing: border-box; vertical-align: middle; width: 22px; height: 22px;&quot; alt=&quot;*&quot; src=&quot;http://localhost/phpmyadmin/themes/pmahomme/img/designer/Field_small_char.png&quot;&gt;Name : text" style="text;html=1;strokeColor=none;fillColor=none;align=left;verticalAlign=top;spacingLeft=4;spacingRight=4;whiteSpace=wrap;overflow=hidden;rotatable=0;points=[[0,0.5],[1,0.5]];portConstraint=eastwest;fontColor=#000000;" parent="78961159f06e98e8-30" vertex="1">
          <mxGeometry y="164" width="260" height="26" as="geometry" />
        </mxCell>
        <mxCell id="78961159f06e98e8-39" value="&lt;img style=&quot;font-family: &amp;quot;Segoe UI&amp;quot;, &amp;quot;Segoe Pro&amp;quot;, sans-serif; font-size: 13.12px; box-sizing: border-box; vertical-align: middle; width: 22px; height: 22px;&quot; alt=&quot;*&quot; src=&quot;http://localhost/phpmyadmin/themes/pmahomme/img/designer/Field_small_char.png&quot;&gt;Surname : text" style="text;html=1;strokeColor=none;fillColor=none;align=left;verticalAlign=top;spacingLeft=4;spacingRight=4;whiteSpace=wrap;overflow=hidden;rotatable=0;points=[[0,0.5],[1,0.5]];portConstraint=eastwest;fontColor=#000000;" parent="78961159f06e98e8-30" vertex="1">
          <mxGeometry y="190" width="260" height="26" as="geometry" />
        </mxCell>
        <mxCell id="78961159f06e98e8-42" value="&lt;img style=&quot;font-family: &amp;quot;Segoe UI&amp;quot;, &amp;quot;Segoe Pro&amp;quot;, sans-serif; font-size: 13.12px; box-sizing: border-box; vertical-align: middle; width: 22px; height: 22px;&quot; alt=&quot;*&quot; src=&quot;http://localhost/phpmyadmin/themes/pmahomme/img/designer/Field_small_char.png&quot;&gt;Password : text" style="text;html=1;strokeColor=none;fillColor=none;align=left;verticalAlign=top;spacingLeft=4;spacingRight=4;whiteSpace=wrap;overflow=hidden;rotatable=0;points=[[0,0.5],[1,0.5]];portConstraint=eastwest;fontColor=#000000;" parent="78961159f06e98e8-30" vertex="1">
          <mxGeometry y="216" width="260" height="26" as="geometry" />
        </mxCell>
        <mxCell id="GG2ZH2h3QIb9JEpN6DkU-13" value="&lt;span style=&quot;background-color: rgb(255, 255, 255);&quot;&gt;&lt;img style=&quot;color: rgb(226, 232, 240); font-family: &amp;quot;Segoe UI&amp;quot;, &amp;quot;Segoe Pro&amp;quot;, sans-serif; font-size: 13.12px; box-sizing: border-box; vertical-align: middle; width: 22px; height: 22px;&quot; alt=&quot;*&quot; src=&quot;http://localhost/phpmyadmin/themes/pmahomme/img/designer/Field_small.png&quot;&gt;&lt;/span&gt;Status : enum(&#39;0&#39;, &#39;1&#39;)" style="text;html=1;strokeColor=none;fillColor=none;align=left;verticalAlign=top;spacingLeft=4;spacingRight=4;whiteSpace=wrap;overflow=hidden;rotatable=0;points=[[0,0.5],[1,0.5]];portConstraint=eastwest;fontColor=#000000;" parent="78961159f06e98e8-30" vertex="1">
          <mxGeometry y="242" width="260" height="26" as="geometry" />
        </mxCell>
        <mxCell id="GG2ZH2h3QIb9JEpN6DkU-15" value="" style="line;html=1;strokeWidth=1;fillColor=none;align=left;verticalAlign=middle;spacingTop=-1;spacingLeft=3;spacingRight=3;rotatable=0;labelPosition=right;points=[];portConstraint=eastwest;" parent="78961159f06e98e8-30" vertex="1">
          <mxGeometry y="268" width="260" height="8" as="geometry" />
        </mxCell>
        <mxCell id="GG2ZH2h3QIb9JEpN6DkU-16" value="&lt;img style=&quot;color: rgb(226, 232, 240); font-family: &amp;quot;Segoe UI&amp;quot;, &amp;quot;Segoe Pro&amp;quot;, sans-serif; box-sizing: border-box; vertical-align: middle; width: 22px; height: 22px;&quot; alt=&quot;*&quot; src=&quot;http://localhost/phpmyadmin/themes/pmahomme/img/designer/Field_small_date.png&quot;&gt;Created_At : timestamp" style="text;html=1;strokeColor=none;fillColor=none;align=left;verticalAlign=top;spacingLeft=4;spacingRight=4;whiteSpace=wrap;overflow=hidden;rotatable=0;points=[[0,0.5],[1,0.5]];portConstraint=eastwest;fontColor=#000000;" parent="78961159f06e98e8-30" vertex="1">
          <mxGeometry y="276" width="260" height="26" as="geometry" />
        </mxCell>
        <mxCell id="GG2ZH2h3QIb9JEpN6DkU-17" value="&lt;img style=&quot;color: rgb(226, 232, 240); font-family: &amp;quot;Segoe UI&amp;quot;, &amp;quot;Segoe Pro&amp;quot;, sans-serif; box-sizing: border-box; vertical-align: middle; width: 22px; height: 22px;&quot; alt=&quot;*&quot; src=&quot;http://localhost/phpmyadmin/themes/pmahomme/img/designer/Field_small_date.png&quot;&gt;Updated_At : timestamp" style="text;html=1;strokeColor=none;fillColor=none;align=left;verticalAlign=top;spacingLeft=4;spacingRight=4;whiteSpace=wrap;overflow=hidden;rotatable=0;points=[[0,0.5],[1,0.5]];portConstraint=eastwest;fontColor=#000000;" parent="78961159f06e98e8-30" vertex="1">
          <mxGeometry y="302" width="260" height="26" as="geometry" />
        </mxCell>
        <mxCell id="78961159f06e98e8-43" value="orders" style="swimlane;html=1;fontStyle=1;align=center;verticalAlign=top;childLayout=stackLayout;horizontal=1;startSize=26;horizontalStack=0;resizeParent=1;resizeLast=0;collapsible=1;marginBottom=0;swimlaneFillColor=#ffffff;rounded=0;shadow=0;comic=0;labelBackgroundColor=none;strokeWidth=1;fillColor=none;fontFamily=Verdana;fontSize=12" parent="1" vertex="1">
          <mxGeometry x="860" y="-596" width="220" height="347" as="geometry" />
        </mxCell>
        <mxCell id="78961159f06e98e8-44" value="&lt;img style=&quot;color: rgb(226, 232, 240); font-family: &amp;quot;Segoe UI&amp;quot;, &amp;quot;Segoe Pro&amp;quot;, sans-serif; font-size: 13.12px; box-sizing: border-box; vertical-align: middle; width: 22px; height: 22px;&quot; alt=&quot;*&quot; src=&quot;http://localhost/phpmyadmin/themes/pmahomme/img/designer/FieldKey_small.png&quot;&gt;Order_Id : int(11)" style="text;html=1;strokeColor=none;fillColor=none;align=left;verticalAlign=top;spacingLeft=4;spacingRight=4;whiteSpace=wrap;overflow=hidden;rotatable=0;points=[[0,0.5],[1,0.5]];portConstraint=eastwest;fontColor=#000000;" parent="78961159f06e98e8-43" vertex="1">
          <mxGeometry y="26" width="220" height="26" as="geometry" />
        </mxCell>
        <mxCell id="78961159f06e98e8-45" value="&lt;img style=&quot;color: rgb(226, 232, 240); font-family: &amp;quot;Segoe UI&amp;quot;, &amp;quot;Segoe Pro&amp;quot;, sans-serif; font-size: 13.12px; box-sizing: border-box; vertical-align: middle; width: 22px; height: 22px;&quot; alt=&quot;*&quot; src=&quot;http://localhost/phpmyadmin/themes/pmahomme/img/designer/FieldKey_small.png&quot;&gt;Order:UID : varchar(15)&amp;nbsp;" style="text;html=1;strokeColor=none;fillColor=none;align=left;verticalAlign=top;spacingLeft=4;spacingRight=4;whiteSpace=wrap;overflow=hidden;rotatable=0;points=[[0,0.5],[1,0.5]];portConstraint=eastwest;fontColor=#000000;" parent="78961159f06e98e8-43" vertex="1">
          <mxGeometry y="52" width="220" height="26" as="geometry" />
        </mxCell>
        <mxCell id="GG2ZH2h3QIb9JEpN6DkU-25" value="" style="line;html=1;strokeWidth=1;fillColor=none;align=left;verticalAlign=middle;spacingTop=-1;spacingLeft=3;spacingRight=3;rotatable=0;labelPosition=right;points=[];portConstraint=eastwest;" parent="78961159f06e98e8-43" vertex="1">
          <mxGeometry y="78" width="220" height="8" as="geometry" />
        </mxCell>
        <mxCell id="78961159f06e98e8-49" value="&lt;img style=&quot;font-family: &amp;quot;Segoe UI&amp;quot;, &amp;quot;Segoe Pro&amp;quot;, sans-serif; font-size: 13.12px; box-sizing: border-box; vertical-align: middle; width: 22px; height: 22px;&quot; alt=&quot;*&quot; src=&quot;http://localhost/phpmyadmin/themes/pmahomme/img/designer/Field_small_char.png&quot;&gt;User_UID : varchar(15)" style="text;html=1;strokeColor=none;fillColor=none;align=left;verticalAlign=top;spacingLeft=4;spacingRight=4;whiteSpace=wrap;overflow=hidden;rotatable=0;points=[[0,0.5],[1,0.5]];portConstraint=eastwest;fontColor=#000000;" parent="78961159f06e98e8-43" vertex="1">
          <mxGeometry y="86" width="220" height="26" as="geometry" />
        </mxCell>
        <mxCell id="GG2ZH2h3QIb9JEpN6DkU-1" value="&lt;img style=&quot;font-family: &amp;quot;Segoe UI&amp;quot;, &amp;quot;Segoe Pro&amp;quot;, sans-serif; font-size: 13.12px; box-sizing: border-box; vertical-align: middle; width: 22px; height: 22px;&quot; alt=&quot;*&quot; src=&quot;http://localhost/phpmyadmin/themes/pmahomme/img/designer/Field_small_char.png&quot;&gt;Administrator_UID : varchar(15)" style="text;html=1;strokeColor=none;fillColor=none;align=left;verticalAlign=top;spacingLeft=4;spacingRight=4;whiteSpace=wrap;overflow=hidden;rotatable=0;points=[[0,0.5],[1,0.5]];portConstraint=eastwest;fontColor=#000000;" parent="78961159f06e98e8-43" vertex="1">
          <mxGeometry y="112" width="220" height="26" as="geometry" />
        </mxCell>
        <mxCell id="78961159f06e98e8-50" value="&lt;img style=&quot;font-family: &amp;quot;Segoe UI&amp;quot;, &amp;quot;Segoe Pro&amp;quot;, sans-serif; font-size: 13.12px; box-sizing: border-box; vertical-align: middle; width: 22px; height: 22px;&quot; alt=&quot;*&quot; src=&quot;http://localhost/phpmyadmin/themes/pmahomme/img/designer/Field_small_char.png&quot;&gt;Catalog_UID : varchar(15)" style="text;html=1;strokeColor=none;fillColor=none;align=left;verticalAlign=top;spacingLeft=4;spacingRight=4;whiteSpace=wrap;overflow=hidden;rotatable=0;points=[[0,0.5],[1,0.5]];portConstraint=eastwest;fontColor=#000000;" parent="78961159f06e98e8-43" vertex="1">
          <mxGeometry y="138" width="220" height="26" as="geometry" />
        </mxCell>
        <mxCell id="78961159f06e98e8-51" value="" style="line;html=1;strokeWidth=1;fillColor=none;align=left;verticalAlign=middle;spacingTop=-1;spacingLeft=3;spacingRight=3;rotatable=0;labelPosition=right;points=[];portConstraint=eastwest;fontColor=#000000;" parent="78961159f06e98e8-43" vertex="1">
          <mxGeometry y="164" width="220" height="8" as="geometry" />
        </mxCell>
        <mxCell id="78961159f06e98e8-52" value="&lt;img style=&quot;color: rgb(226, 232, 240); font-family: &amp;quot;Segoe UI&amp;quot;, &amp;quot;Segoe Pro&amp;quot;, sans-serif; font-size: 13.12px; box-sizing: border-box; vertical-align: middle; width: 22px; height: 22px;&quot; alt=&quot;*&quot; src=&quot;http://localhost/phpmyadmin/themes/pmahomme/img/designer/Field_small.png&quot;&gt;Type : enum(&#39;Subscription&#39;,&#39;Room&#39;)" style="text;html=1;strokeColor=none;fillColor=none;align=left;verticalAlign=top;spacingLeft=4;spacingRight=4;whiteSpace=wrap;overflow=hidden;rotatable=0;points=[[0,0.5],[1,0.5]];portConstraint=eastwest;fontColor=#000000;" parent="78961159f06e98e8-43" vertex="1">
          <mxGeometry y="172" width="220" height="26" as="geometry" />
        </mxCell>
        <mxCell id="78961159f06e98e8-53" value="&lt;img style=&quot;font-family: &amp;quot;Segoe UI&amp;quot;, &amp;quot;Segoe Pro&amp;quot;, sans-serif; font-size: 13.12px; box-sizing: border-box; vertical-align: middle; width: 22px; height: 22px;&quot; alt=&quot;*&quot; src=&quot;http://localhost/phpmyadmin/themes/pmahomme/img/designer/Field_small_char.png&quot;&gt;Start_Date : datetime" style="text;html=1;strokeColor=none;fillColor=none;align=left;verticalAlign=top;spacingLeft=4;spacingRight=4;whiteSpace=wrap;overflow=hidden;rotatable=0;points=[[0,0.5],[1,0.5]];portConstraint=eastwest;fontColor=#000000;" parent="78961159f06e98e8-43" vertex="1">
          <mxGeometry y="198" width="220" height="26" as="geometry" />
        </mxCell>
        <mxCell id="GG2ZH2h3QIb9JEpN6DkU-19" value="&lt;img style=&quot;font-family: &amp;quot;Segoe UI&amp;quot;, &amp;quot;Segoe Pro&amp;quot;, sans-serif; font-size: 13.12px; box-sizing: border-box; vertical-align: middle; width: 22px; height: 22px;&quot; alt=&quot;*&quot; src=&quot;http://localhost/phpmyadmin/themes/pmahomme/img/designer/Field_small_char.png&quot;&gt;End_Date : datetime" style="text;html=1;strokeColor=none;fillColor=none;align=left;verticalAlign=top;spacingLeft=4;spacingRight=4;whiteSpace=wrap;overflow=hidden;rotatable=0;points=[[0,0.5],[1,0.5]];portConstraint=eastwest;fontColor=#000000;" parent="78961159f06e98e8-43" vertex="1">
          <mxGeometry y="224" width="220" height="26" as="geometry" />
        </mxCell>
        <mxCell id="GG2ZH2h3QIb9JEpN6DkU-20" value="&lt;img style=&quot;color: rgb(226, 232, 240); font-family: &amp;quot;Segoe UI&amp;quot;, &amp;quot;Segoe Pro&amp;quot;, sans-serif; font-size: 13.12px; box-sizing: border-box; vertical-align: middle; width: 22px; height: 22px;&quot; alt=&quot;*&quot; src=&quot;http://localhost/phpmyadmin/themes/pmahomme/img/designer/Field_small.png&quot;&gt;Is_Returned : enum(&#39;0&#39;,&#39;1&#39;)" style="text;html=1;strokeColor=none;fillColor=none;align=left;verticalAlign=top;spacingLeft=4;spacingRight=4;whiteSpace=wrap;overflow=hidden;rotatable=0;points=[[0,0.5],[1,0.5]];portConstraint=eastwest;fontColor=#000000;" parent="78961159f06e98e8-43" vertex="1">
          <mxGeometry y="250" width="220" height="26" as="geometry" />
        </mxCell>
        <mxCell id="GG2ZH2h3QIb9JEpN6DkU-22" value="" style="line;html=1;strokeWidth=1;fillColor=none;align=left;verticalAlign=middle;spacingTop=-1;spacingLeft=3;spacingRight=3;rotatable=0;labelPosition=right;points=[];portConstraint=eastwest;" parent="78961159f06e98e8-43" vertex="1">
          <mxGeometry y="276" width="220" height="8" as="geometry" />
        </mxCell>
        <mxCell id="GG2ZH2h3QIb9JEpN6DkU-23" value="&lt;img style=&quot;color: rgb(226, 232, 240); font-family: &amp;quot;Segoe UI&amp;quot;, &amp;quot;Segoe Pro&amp;quot;, sans-serif; box-sizing: border-box; vertical-align: middle; width: 22px; height: 22px;&quot; alt=&quot;*&quot; src=&quot;http://localhost/phpmyadmin/themes/pmahomme/img/designer/Field_small_date.png&quot;&gt;Created_At : timestamp" style="text;html=1;strokeColor=none;fillColor=none;align=left;verticalAlign=top;spacingLeft=4;spacingRight=4;whiteSpace=wrap;overflow=hidden;rotatable=0;points=[[0,0.5],[1,0.5]];portConstraint=eastwest;fontColor=#000000;" parent="78961159f06e98e8-43" vertex="1">
          <mxGeometry y="284" width="220" height="26" as="geometry" />
        </mxCell>
        <mxCell id="GG2ZH2h3QIb9JEpN6DkU-24" value="&lt;img style=&quot;color: rgb(226, 232, 240); font-family: &amp;quot;Segoe UI&amp;quot;, &amp;quot;Segoe Pro&amp;quot;, sans-serif; box-sizing: border-box; vertical-align: middle; width: 22px; height: 22px;&quot; alt=&quot;*&quot; src=&quot;http://localhost/phpmyadmin/themes/pmahomme/img/designer/Field_small_date.png&quot;&gt;Updated_At : timestamp" style="text;html=1;strokeColor=none;fillColor=none;align=left;verticalAlign=top;spacingLeft=4;spacingRight=4;whiteSpace=wrap;overflow=hidden;rotatable=0;points=[[0,0.5],[1,0.5]];portConstraint=eastwest;fontColor=#000000;" parent="78961159f06e98e8-43" vertex="1">
          <mxGeometry y="310" width="220" height="26" as="geometry" />
        </mxCell>
        <mxCell id="78961159f06e98e8-82" value="reader" style="swimlane;html=1;fontStyle=1;align=center;verticalAlign=top;childLayout=stackLayout;horizontal=1;startSize=26;horizontalStack=0;resizeParent=1;resizeLast=0;collapsible=1;marginBottom=0;swimlaneFillColor=#ffffff;rounded=0;shadow=0;comic=0;labelBackgroundColor=none;strokeWidth=1;fillColor=none;fontFamily=Verdana;fontSize=12" parent="1" vertex="1">
          <mxGeometry x="400" y="-850" width="260" height="318" as="geometry" />
        </mxCell>
        <mxCell id="78961159f06e98e8-83" value="&lt;img style=&quot;color: rgb(226, 232, 240); font-family: &amp;quot;Segoe UI&amp;quot;, &amp;quot;Segoe Pro&amp;quot;, sans-serif; font-size: 13.12px; box-sizing: border-box; vertical-align: middle; width: 22px; height: 22px;&quot; alt=&quot;*&quot; src=&quot;http://localhost/phpmyadmin/themes/pmahomme/img/designer/FieldKey_small.png&quot;&gt;Reader_ID : int(11)" style="text;html=1;strokeColor=none;fillColor=none;align=left;verticalAlign=top;spacingLeft=4;spacingRight=4;whiteSpace=wrap;overflow=hidden;rotatable=0;points=[[0,0.5],[1,0.5]];portConstraint=eastwest;fontColor=#000000;" parent="78961159f06e98e8-82" vertex="1">
          <mxGeometry y="26" width="260" height="26" as="geometry" />
        </mxCell>
        <mxCell id="78961159f06e98e8-84" value="&lt;img style=&quot;color: rgb(226, 232, 240); font-family: &amp;quot;Segoe UI&amp;quot;, &amp;quot;Segoe Pro&amp;quot;, sans-serif; font-size: 13.12px; box-sizing: border-box; vertical-align: middle; width: 22px; height: 22px;&quot; alt=&quot;*&quot; src=&quot;http://localhost/phpmyadmin/themes/pmahomme/img/designer/FieldKey_small.png&quot;&gt;Reader_UID : varchar(15)" style="text;html=1;strokeColor=none;fillColor=none;align=left;verticalAlign=top;spacingLeft=4;spacingRight=4;whiteSpace=wrap;overflow=hidden;rotatable=0;points=[[0,0.5],[1,0.5]];portConstraint=eastwest;fontColor=#000000;" parent="78961159f06e98e8-82" vertex="1">
          <mxGeometry y="52" width="260" height="26" as="geometry" />
        </mxCell>
        <mxCell id="78961159f06e98e8-86" value="&lt;img style=&quot;color: rgb(226, 232, 240); font-family: &amp;quot;Segoe UI&amp;quot;, &amp;quot;Segoe Pro&amp;quot;, sans-serif; font-size: 13.12px; box-sizing: border-box; vertical-align: middle; width: 22px; height: 22px;&quot; alt=&quot;*&quot; src=&quot;http://localhost/phpmyadmin/themes/pmahomme/img/designer/FieldKey_small.png&quot;&gt;Username : text" style="text;html=1;strokeColor=none;fillColor=none;align=left;verticalAlign=top;spacingLeft=4;spacingRight=4;whiteSpace=wrap;overflow=hidden;rotatable=0;points=[[0,0.5],[1,0.5]];portConstraint=eastwest;fontColor=#000000;" parent="78961159f06e98e8-82" vertex="1">
          <mxGeometry y="78" width="260" height="26" as="geometry" />
        </mxCell>
        <mxCell id="78961159f06e98e8-89" value="&lt;img style=&quot;color: rgb(226, 232, 240); font-family: &amp;quot;Segoe UI&amp;quot;, &amp;quot;Segoe Pro&amp;quot;, sans-serif; font-size: 13.12px; box-sizing: border-box; vertical-align: middle; width: 22px; height: 22px;&quot; alt=&quot;*&quot; src=&quot;http://localhost/phpmyadmin/themes/pmahomme/img/designer/FieldKey_small.png&quot;&gt;Email : text" style="text;html=1;strokeColor=none;fillColor=none;align=left;verticalAlign=top;spacingLeft=4;spacingRight=4;whiteSpace=wrap;overflow=hidden;rotatable=0;points=[[0,0.5],[1,0.5]];portConstraint=eastwest;fontColor=#000000;" parent="78961159f06e98e8-82" vertex="1">
          <mxGeometry y="104" width="260" height="26" as="geometry" />
        </mxCell>
        <mxCell id="78961159f06e98e8-90" value="" style="line;html=1;strokeWidth=1;fillColor=none;align=left;verticalAlign=middle;spacingTop=-1;spacingLeft=3;spacingRight=3;rotatable=0;labelPosition=right;points=[];portConstraint=eastwest;" parent="78961159f06e98e8-82" vertex="1">
          <mxGeometry y="130" width="260" height="8" as="geometry" />
        </mxCell>
        <mxCell id="78961159f06e98e8-85" value="&lt;img style=&quot;font-family: &amp;quot;Segoe UI&amp;quot;, &amp;quot;Segoe Pro&amp;quot;, sans-serif; font-size: 13.12px; box-sizing: border-box; vertical-align: middle; width: 22px; height: 22px;&quot; alt=&quot;*&quot; src=&quot;http://localhost/phpmyadmin/themes/pmahomme/img/designer/Field_small_char.png&quot;&gt;Administrator_UID : varchar(15)" style="text;html=1;strokeColor=none;fillColor=none;align=left;verticalAlign=top;spacingLeft=4;spacingRight=4;whiteSpace=wrap;overflow=hidden;rotatable=0;points=[[0,0.5],[1,0.5]];portConstraint=eastwest;fontColor=#000000;" parent="78961159f06e98e8-82" vertex="1">
          <mxGeometry y="138" width="260" height="26" as="geometry" />
        </mxCell>
        <mxCell id="78961159f06e98e8-87" value="&lt;img style=&quot;font-family: &amp;quot;Segoe UI&amp;quot;, &amp;quot;Segoe Pro&amp;quot;, sans-serif; font-size: 13.12px; box-sizing: border-box; vertical-align: middle; width: 22px; height: 22px;&quot; alt=&quot;*&quot; src=&quot;http://localhost/phpmyadmin/themes/pmahomme/img/designer/Field_small_char.png&quot;&gt;Name : text" style="text;html=1;strokeColor=none;fillColor=none;align=left;verticalAlign=top;spacingLeft=4;spacingRight=4;whiteSpace=wrap;overflow=hidden;rotatable=0;points=[[0,0.5],[1,0.5]];portConstraint=eastwest;fontColor=#000000;" parent="78961159f06e98e8-82" vertex="1">
          <mxGeometry y="164" width="260" height="26" as="geometry" />
        </mxCell>
        <mxCell id="78961159f06e98e8-88" value="&lt;img style=&quot;font-family: &amp;quot;Segoe UI&amp;quot;, &amp;quot;Segoe Pro&amp;quot;, sans-serif; font-size: 13.12px; box-sizing: border-box; vertical-align: middle; width: 22px; height: 22px;&quot; alt=&quot;*&quot; src=&quot;http://localhost/phpmyadmin/themes/pmahomme/img/designer/Field_small_char.png&quot;&gt;Surname : text" style="text;html=1;strokeColor=none;fillColor=none;align=left;verticalAlign=top;spacingLeft=4;spacingRight=4;whiteSpace=wrap;overflow=hidden;rotatable=0;points=[[0,0.5],[1,0.5]];portConstraint=eastwest;fontColor=#000000;" parent="78961159f06e98e8-82" vertex="1">
          <mxGeometry y="190" width="260" height="26" as="geometry" />
        </mxCell>
        <mxCell id="78961159f06e98e8-91" value="&lt;img style=&quot;color: rgb(226, 232, 240); font-family: &amp;quot;Segoe UI&amp;quot;, &amp;quot;Segoe Pro&amp;quot;, sans-serif; font-size: 13.12px; box-sizing: border-box; vertical-align: middle; width: 22px; height: 22px;&quot; alt=&quot;*&quot; src=&quot;http://localhost/phpmyadmin/themes/pmahomme/img/designer/Field_small.png&quot;&gt;Status : enum(&#39;0&#39;,&#39;1&#39;,&#39;2&#39;)" style="text;html=1;strokeColor=none;fillColor=none;align=left;verticalAlign=top;spacingLeft=4;spacingRight=4;whiteSpace=wrap;overflow=hidden;rotatable=0;points=[[0,0.5],[1,0.5]];portConstraint=eastwest;fontColor=#000000;" parent="78961159f06e98e8-82" vertex="1">
          <mxGeometry y="216" width="260" height="26" as="geometry" />
        </mxCell>
        <mxCell id="GG2ZH2h3QIb9JEpN6DkU-26" value="" style="line;html=1;strokeWidth=1;fillColor=none;align=left;verticalAlign=middle;spacingTop=-1;spacingLeft=3;spacingRight=3;rotatable=0;labelPosition=right;points=[];portConstraint=eastwest;" parent="78961159f06e98e8-82" vertex="1">
          <mxGeometry y="242" width="260" height="8" as="geometry" />
        </mxCell>
        <mxCell id="GG2ZH2h3QIb9JEpN6DkU-28" value="&lt;img style=&quot;color: rgb(226, 232, 240); font-family: &amp;quot;Segoe UI&amp;quot;, &amp;quot;Segoe Pro&amp;quot;, sans-serif; box-sizing: border-box; vertical-align: middle; width: 22px; height: 22px;&quot; alt=&quot;*&quot; src=&quot;http://localhost/phpmyadmin/themes/pmahomme/img/designer/Field_small_date.png&quot;&gt;Updated_At : timestamp" style="text;html=1;strokeColor=none;fillColor=none;align=left;verticalAlign=top;spacingLeft=4;spacingRight=4;whiteSpace=wrap;overflow=hidden;rotatable=0;points=[[0,0.5],[1,0.5]];portConstraint=eastwest;fontColor=#000000;" parent="78961159f06e98e8-82" vertex="1">
          <mxGeometry y="250" width="260" height="26" as="geometry" />
        </mxCell>
        <mxCell id="GG2ZH2h3QIb9JEpN6DkU-27" value="&lt;img style=&quot;color: rgb(226, 232, 240); font-family: &amp;quot;Segoe UI&amp;quot;, &amp;quot;Segoe Pro&amp;quot;, sans-serif; box-sizing: border-box; vertical-align: middle; width: 22px; height: 22px;&quot; alt=&quot;*&quot; src=&quot;http://localhost/phpmyadmin/themes/pmahomme/img/designer/Field_small_date.png&quot;&gt;Created_At : timestamp" style="text;html=1;strokeColor=none;fillColor=none;align=left;verticalAlign=top;spacingLeft=4;spacingRight=4;whiteSpace=wrap;overflow=hidden;rotatable=0;points=[[0,0.5],[1,0.5]];portConstraint=eastwest;fontColor=#000000;" parent="78961159f06e98e8-82" vertex="1">
          <mxGeometry y="276" width="260" height="26" as="geometry" />
        </mxCell>
        <mxCell id="GG2ZH2h3QIb9JEpN6DkU-30" style="edgeStyle=orthogonalEdgeStyle;rounded=0;orthogonalLoop=1;jettySize=auto;html=1;" parent="1" source="78961159f06e98e8-31" target="78961159f06e98e8-26" edge="1">
          <mxGeometry relative="1" as="geometry" />
        </mxCell>
        <mxCell id="GG2ZH2h3QIb9JEpN6DkU-32" style="edgeStyle=orthogonalEdgeStyle;rounded=0;orthogonalLoop=1;jettySize=auto;html=1;" parent="1" source="78961159f06e98e8-31" target="78961159f06e98e8-85" edge="1">
          <mxGeometry relative="1" as="geometry" />
        </mxCell>
        <mxCell id="GG2ZH2h3QIb9JEpN6DkU-33" style="edgeStyle=orthogonalEdgeStyle;rounded=0;orthogonalLoop=1;jettySize=auto;html=1;" parent="1" source="78961159f06e98e8-84" target="78961159f06e98e8-49" edge="1">
          <mxGeometry relative="1" as="geometry" />
        </mxCell>
        <mxCell id="GG2ZH2h3QIb9JEpN6DkU-34" style="edgeStyle=orthogonalEdgeStyle;rounded=0;orthogonalLoop=1;jettySize=auto;html=1;" parent="1" source="78961159f06e98e8-23" target="78961159f06e98e8-50" edge="1">
          <mxGeometry relative="1" as="geometry" />
        </mxCell>
        <mxCell id="LByJyQoCPzZdptXfPCfx-1" style="edgeStyle=orthogonalEdgeStyle;rounded=0;orthogonalLoop=1;jettySize=auto;html=1;" edge="1" parent="1" source="78961159f06e98e8-32" target="GG2ZH2h3QIb9JEpN6DkU-1">
          <mxGeometry relative="1" as="geometry" />
        </mxCell>
      </root>
    </mxGraphModel>
  </diagram>
</mxfile>
